PathFileType	4	(X/Y/Z)	\\147.46.242.158\로컬 디스크 (e)\MOCAP Data\Iguana Capture\iguana\Project 2\Capture day 7\Session 2\Take06.trc
DataRate	CameraRate	NumFrames	NumMarkers	Units	OrigDataRate	OrigDataStartFrame	OrigNumFrames
120.0	120.0	17	23	mm	120.0	145	14620
Frame#	Time	ana:head1			ana:head2			ana:bone1			ana:bone2			ana:bone3			ana:tail1			ana:tail2			ana:tail3			ana:tail4			ana:Rforefoot1			ana:Rforefoot2			ana:Rforefoot3			ana:Lforefoot1			ana:Lforefoot2			ana:Lforefoot3			ana:RhindLeg1			ana:RhindLeg2			ana:RhindLeg3			ana:RhindLeg4			ana:LhindLeg1			ana:LhindLeg2			ana:LhindLeg3			ana:LhindLeg4			
		X1	Y1	Z1	X2	Y2	Z2	X3	Y3	Z3	X4	Y4	Z4	X5	Y5	Z5	X6	Y6	Z6	X7	Y7	Z7	X8	Y8	Z8	X9	Y9	Z9	X10	Y10	Z10	X11	Y11	Z11	X12	Y12	Z12	X13	Y13	Z13	X14	Y14	Z14	X15	Y15	Z15	X16	Y16	Z16	X17	Y17	Z17	X18	Y18	Z18	X19	Y19	Z19	X20	Y20	Z20	X21	Y21	Z21	X22	Y22	Z22	X23	Y23	Z23	

9607	80.050	430.28061	-114.38405	54.50046	420.08252	-117.64892	54.73415	399.08099	-121.12831	43.30968	372.50931	-123.42678	36.86489	339.69495	-132.32286	28.34324	309.69565	-138.87051	19.25161	276.92685	-126.53809	9.94254	249.39182	-91.68229	6.50193	237.02815	-53.27844	7.87360	407.35788	-132.83064	25.55945	402.21341	-144.83240	16.69705	409.11499	-135.93820	4.62995	399.23730	-109.29431	33.52697	399.80270	-98.67524	31.95373	415.01978	-93.11928	25.33479	342.25513	-142.75253	22.97299	342.82913	-162.08890	22.28247	325.66724	-176.33975	14.03465	327.54822	-185.85451	7.51824	337.01062	-124.05178	20.70940	335.87640	-106.70520	14.67665	324.22672	-120.42796	5.01644	334.97809	-112.30526	3.57722	
9608	80.058	430.57324	-114.46751	54.52022	420.37955	-117.93552	54.89703	399.42224	-121.27357	43.37650	372.81830	-123.44414	36.91690	340.07608	-132.33586	28.20256	310.09894	-139.08614	19.04407	277.33328	-126.88222	9.82893	249.60107	-92.14456	6.56143	237.27310	-53.74011	7.96093	407.60672	-132.95589	25.55087	402.31540	-144.87273	16.64301	409.15921	-135.99683	4.61288	399.84512	-109.23743	33.48604	400.66226	-98.39459	31.74131	415.89139	-93.12204	25.01970	342.87573	-142.59126	22.84970	344.10406	-161.92816	22.62529	326.71060	-175.47920	13.90543	328.76794	-185.15854	7.66636	337.34366	-124.06811	20.61785	335.85315	-106.72146	14.68237	324.29340	-120.50211	5.06601	334.62619	-112.17942	3.87982	
9609	80.067	430.82614	-114.55333	54.51480	420.63950	-118.20686	54.94822	399.72797	-121.45883	43.42484	373.08282	-123.51967	36.96884	340.44281	-132.38701	28.02446	310.49158	-139.35060	18.78725	277.72836	-127.22960	9.68222	249.79469	-92.61927	6.65695	237.44023	-54.22816	8.13254	407.84076	-133.09235	25.53360	402.44455	-144.96970	16.57846	409.20090	-136.06674	4.58958	400.60931	-109.14877	33.41973	401.48038	-98.08706	31.44470	416.76404	-93.10014	24.68065	343.46402	-142.43994	22.66820	345.45541	-161.72145	22.98880	327.81912	-174.36955	13.64030	330.16342	-184.27589	7.85076	337.62454	-124.10995	20.51592	335.82120	-106.76813	14.69589	324.35406	-120.57265	5.09761	334.14926	-112.02530	4.28246	
9610	80.075	431.05826	-114.70755	54.55317	420.89410	-118.41586	54.95820	400.02097	-121.68710	43.44839	373.31290	-123.63931	37.02142	340.77271	-132.49185	27.85597	310.88327	-139.64125	18.49593	278.08676	-127.57426	9.53224	249.94220	-93.09470	6.78296	237.46159	-54.75657	8.39958	408.05325	-133.24062	25.50862	402.58087	-145.10037	16.47307	409.23273	-136.14166	4.56940	401.42307	-109.04711	33.43600	402.28149	-97.84061	31.16626	417.72318	-93.08672	24.39399	344.01138	-142.32419	22.45254	346.86111	-161.46242	23.31765	328.97812	-173.02626	13.24612	331.68015	-183.16779	7.97000	337.87299	-124.16717	20.40330	335.79965	-106.83823	14.71488	324.41135	-120.63287	5.10622	333.59961	-111.85927	4.73039	
9611	80.083	431.29031	-114.92058	54.64169	421.15970	-118.55545	54.94691	400.24146	-121.94084	43.47141	373.52310	-123.79141	37.05664	341.07422	-132.64624	27.69148	311.23279	-139.89598	18.19404	278.39459	-127.89678	9.39102	250.01646	-93.57146	6.93776	237.30717	-55.32577	8.75794	408.22769	-133.40750	25.47268	402.70331	-145.24817	16.34408	409.25528	-136.21397	4.55154	402.35291	-108.98680	33.40656	403.07187	-97.64691	30.88258	418.70801	-93.11032	24.22402	344.48059	-142.28587	22.22853	348.27069	-161.13608	23.58125	330.16357	-171.52870	12.75643	333.32474	-181.90331	8.07029	338.10190	-124.24503	20.28568	335.80603	-106.92080	14.73166	324.49957	-120.67330	5.12070	333.24435	-111.75030	5.02839	
9612	80.092	431.52972	-115.17464	54.74899	421.43549	-118.67191	54.95263	400.48138	-122.21076	43.49427	373.72311	-123.98685	37.07711	341.33514	-132.83566	27.53777	311.52521	-140.09718	17.90355	278.66425	-128.19247	9.26498	250.01726	-94.03073	7.09230	236.99940	-55.92543	9.15343	408.35953	-133.59479	25.43519	402.78351	-145.40005	16.20251	409.26428	-136.26390	4.54546	403.07074	-108.99440	33.36682	403.88065	-97.56116	30.60214	419.80188	-93.16212	24.13831	344.88342	-142.29663	21.99876	349.66055	-160.75266	23.78708	331.40244	-169.97879	12.22729	335.05551	-180.53046	8.12139	338.30756	-124.33149	20.15831	335.83597	-107.01110	14.74705	324.62918	-120.70486	5.13368	333.13055	-111.71266	5.13540	
9613	80.100	431.79709	-115.45020	54.88482	421.64767	-118.82121	55.01519	400.69354	-122.48045	43.52176	373.93033	-124.20384	37.07455	341.56894	-132.99614	27.38420	311.76129	-140.24022	17.65796	278.89435	-128.44269	9.15736	249.95981	-94.47736	7.23886	236.56453	-56.54715	9.56216	408.45990	-133.79210	25.39453	402.81940	-145.54524	16.06877	409.26508	-136.30202	4.54265	403.54953	-109.07164	33.29874	404.74728	-97.54285	30.31487	420.88574	-93.24203	24.01420	345.22626	-142.34091	21.78579	351.01031	-160.31015	23.93309	332.72147	-168.43437	11.67960	336.88284	-179.07385	8.11596	338.49283	-124.41986	20.04017	335.88654	-107.06612	14.71793	324.81274	-120.75285	5.12419	333.27130	-111.75361	5.04452	
9614	80.108	432.06924	-115.77564	55.07607	421.85995	-118.95938	55.11854	400.88730	-122.75210	43.54704	374.13977	-124.43114	37.05151	341.80356	-133.13599	27.21902	311.97116	-140.37148	17.45118	279.10767	-128.65076	9.07049	249.87733	-94.90696	7.33760	236.05829	-57.16722	9.90585	408.53317	-133.99933	25.35613	402.81003	-145.67560	15.95601	409.25797	-136.32477	4.54467	403.81760	-109.19885	33.18826	405.62292	-97.58756	30.04245	421.96674	-93.32694	23.81753	345.54745	-142.37903	21.56710	352.32428	-159.79730	24.02015	334.12787	-166.98465	11.15391	338.82803	-177.61996	8.09365	338.68243	-124.49088	19.92025	335.93497	-107.12101	14.69935	325.03250	-120.81749	5.09318	333.65051	-111.86025	4.77162	
9615	80.117	432.29971	-116.06977	55.21199	422.03259	-119.12877	55.17997	401.07248	-123.02879	43.58917	374.33188	-124.66355	37.02680	342.02365	-133.24075	27.05500	312.18109	-140.51285	17.26842	279.30762	-128.82205	8.99286	249.78267	-95.31077	7.38935	235.53104	-57.76748	10.16080	408.59323	-134.21072	25.31745	402.76559	-145.78191	15.86607	409.25009	-136.34489	4.54886	404.15814	-109.37031	32.98603	406.60556	-97.69966	29.76229	423.02371	-93.42283	23.52410	345.85745	-142.37262	21.34669	353.59180	-159.23349	24.08674	335.62766	-165.69641	10.69162	340.91022	-176.20856	8.10895	338.85434	-124.55468	19.81901	335.99652	-107.14045	14.62815	325.27963	-120.95885	4.97138	334.00674	-111.96025	4.51951	
9616	80.125	432.47168	-116.31954	55.28273	422.16565	-119.31244	55.19044	401.23816	-123.30765	43.65008	374.49692	-124.88261	37.00789	342.24588	-133.32939	26.89320	312.41565	-140.66870	17.10914	279.48599	-128.97083	8.92927	249.69478	-95.68230	7.38849	235.03491	-58.30302	10.27017	408.66028	-134.41611	25.27670	402.72202	-145.89333	15.79960	409.23322	-136.34908	4.54238	404.68018	-109.51555	32.76246	407.59766	-97.86378	29.50948	424.03885	-93.52034	23.06485	346.15759	-142.33008	21.17527	354.82956	-158.61311	24.14059	337.22720	-164.59555	10.29990	343.15155	-174.86311	8.15829	339.02036	-124.59542	19.74183	336.03384	-107.16050	14.59070	325.51251	-121.15361	4.78381	334.26132	-112.03649	4.34420	
9617	80.133	432.57874	-116.47928	55.22602	422.24878	-119.50814	55.14386	401.34521	-123.54453	43.72094	374.62607	-125.06842	37.00000	342.44495	-133.41087	26.76332	312.67508	-140.84163	16.95937	279.65640	-129.10329	8.87392	249.62541	-96.01359	7.34333	234.60812	-58.75632	10.26098	408.73044	-134.61713	25.22915	402.67212	-145.99867	15.74234	409.21207	-136.34819	4.52654	405.47589	-109.60407	32.52641	408.61450	-98.04125	29.23944	424.97360	-93.61962	22.52986	346.45776	-142.24301	21.04059	356.01053	-157.96129	24.19725	338.93561	-163.75748	9.97194	345.56430	-173.65698	8.30872	339.15796	-124.63011	19.69505	336.06088	-107.18087	14.57802	325.70572	-121.37093	4.56569	334.41104	-112.08176	4.24688	
9618	80.142	432.62991	-116.57372	55.07019	422.28323	-119.69343	55.03776	401.43890	-123.74677	43.79469	374.72314	-125.21666	37.00441	342.61844	-133.45772	26.63844	312.96326	-141.01851	16.80290	279.80597	-129.22281	8.83347	249.57228	-96.28982	7.26721	234.30112	-59.11440	10.13672	408.80557	-134.79199	25.17442	402.62659	-146.09479	15.67843	409.18417	-136.35455	4.49232	406.48950	-109.66423	32.15667	409.68430	-98.23001	28.97054	425.90063	-93.71191	21.87234	346.77396	-142.14064	21.00481	357.14990	-157.29066	24.28819	340.70084	-163.16751	9.75096	348.06143	-172.53075	8.57209	339.28885	-124.65141	19.66006	336.12762	-107.21980	14.58244	325.83673	-121.58678	4.34520	334.40427	-112.09071	4.25657	
9619	80.150	432.67676	-116.58134	54.80595	422.30255	-119.90297	54.92090	401.51852	-123.90376	43.86011	374.80225	-125.31638	37.01923	342.74222	-133.49721	26.57646	313.21756	-141.15190	16.67146	279.93524	-129.33986	8.81319	249.54651	-96.50842	7.18139	234.12430	-59.36292	9.97886	408.88205	-134.93591	25.12159	402.59128	-146.17337	15.62085	409.15991	-136.36255	4.44657	407.38724	-109.69458	31.87489	410.78467	-98.44440	28.67747	426.77078	-93.82967	21.21508	347.06369	-142.06628	21.06820	358.20837	-156.59877	24.43597	342.45538	-162.85924	9.72111	350.63187	-171.49129	8.99527	339.41647	-124.66267	19.63995	336.22672	-107.26346	14.59693	325.92285	-121.75035	4.18068	334.39944	-112.09404	4.26393	
9620	80.158	432.81259	-116.63538	54.64412	422.30466	-120.00230	54.81994	401.61285	-124.01623	43.91800	374.87756	-125.37551	37.03096	342.84879	-133.49527	26.54025	313.42169	-141.24350	16.57551	280.06073	-129.44667	8.80847	249.56024	-96.67850	7.10343	234.07285	-59.51370	9.83834	408.96201	-135.04527	25.08813	402.57657	-146.23236	15.58021	409.13858	-136.36911	4.40097	408.17383	-109.72755	31.59679	411.85001	-98.65563	28.42114	427.61523	-93.95097	20.56135	347.27850	-141.97293	21.18831	359.17841	-155.88902	24.64251	344.22885	-162.78529	9.85564	353.17377	-170.46693	9.50163	339.53177	-124.65668	19.62814	336.34460	-107.32475	14.62925	325.97433	-121.84356	4.09458	334.24701	-112.06295	4.37172	
9621	80.167	433.03421	-116.71786	54.58362	422.35471	-120.04369	54.74447	401.73849	-124.09517	43.98368	374.95825	-125.40129	37.04408	342.95715	-133.45767	26.54160	313.57114	-141.29350	16.52068	280.19501	-129.54182	8.80560	249.62047	-96.80869	7.05589	234.14914	-59.62605	9.75664	409.05060	-135.11105	25.08869	402.59726	-146.26675	15.57293	409.13654	-136.37639	4.36497	408.69260	-109.78378	31.37931	412.79605	-98.85452	28.14119	428.44720	-94.08452	19.97433	347.41614	-141.86198	21.33910	360.06125	-155.18590	24.92858	345.99472	-162.87045	10.14316	355.65863	-169.44247	10.12024	339.62805	-124.64391	19.63613	336.47375	-107.32111	14.56884	326.00720	-121.89416	4.06177	334.13589	-112.03946	4.44956	
9622	80.175	433.34198	-116.86708	54.68312	422.46185	-120.02814	54.70110	401.91895	-124.13942	44.02909	375.05600	-125.38815	37.06525	343.06818	-133.40909	26.57676	313.69614	-141.34918	16.51027	280.33514	-129.64139	8.81476	249.72478	-96.92931	7.04755	234.30298	-59.69816	9.73244	409.14896	-135.13673	25.12020	402.64316	-146.26871	15.59241	409.15189	-136.39162	4.35582	408.95749	-109.81738	31.25014	413.68835	-99.05210	27.90854	429.22119	-94.20206	19.48045	347.48929	-141.71764	21.46383	360.85971	-154.47131	25.23276	347.73199	-163.02103	10.51305	358.00552	-168.38678	10.74983	339.72131	-124.62280	19.64640	336.57214	-107.31895	14.53726	326.03702	-121.90054	4.08774	333.89056	-111.98608	4.61603	
9623	80.183	433.66730	-117.01387	54.83926	422.64932	-119.95451	54.71712	402.14587	-124.15145	44.05890	375.16730	-125.33619	37.09467	343.18448	-133.34543	26.62776	313.81436	-141.40990	16.53577	280.48663	-129.74585	8.84373	249.86394	-97.05392	7.07646	234.50522	-59.78148	9.73975	409.25735	-135.13135	25.16033	402.70636	-146.23926	15.63182	409.18048	-136.41620	4.37491	409.25751	-109.84782	31.12784	414.51508	-99.22263	27.66267	429.92007	-94.27831	19.02195	347.58588	-141.53915	21.51882	361.57645	-153.76848	25.52285	349.41959	-163.20782	10.91505	360.17786	-167.42419	11.42159	339.79800	-124.60032	19.66131	336.64890	-107.28600	14.46881	326.07495	-121.91639	4.10536	333.60550	-111.92489	4.80675	
